<svg xmlns="http://www.w3.org/2000/svg" viewBox="0 0 640 800">
  <defs>
    <linearGradient id="bg" x1="0" y1="0" x2="1" y2="1">
      <stop offset="0%" stop-color="#0f172a" />
      <stop offset="100%" stop-color="#1e293b" />
    </linearGradient>
    <linearGradient id="accent" x1="0" y1="0" x2="1" y2="1">
      <stop offset="0%" stop-color="#2563eb" />
      <stop offset="100%" stop-color="#38bdf8" />
    </linearGradient>
  </defs>
  <rect width="640" height="800" rx="40" fill="url(#bg)" />
  <circle cx="320" cy="260" r="140" fill="#1e293b" stroke="url(#accent)" stroke-width="16" />
  <ellipse cx="320" cy="470" rx="210" ry="190" fill="#1e293b" stroke="#334155" stroke-width="12" />
  <path d="M170 560 C 210 520, 286 500, 320 500 C 354 500, 430 520, 470 560 L 470 600 C 430 620, 354 640, 320 640 C 286 640, 210 620, 170 600 Z" fill="#1e293b" />
  <path d="M220 190 C 240 140, 300 120, 320 140 C 340 120, 400 140, 420 190" fill="none" stroke="#475569" stroke-width="18" stroke-linecap="round" />
  <path d="M180 300 C 210 320, 250 335, 320 335 C 390 335, 430 320, 460 300" fill="#0f172a" />
  <path d="M200 285 C 230 270, 290 260, 320 260 C 350 260, 410 270, 440 285" fill="#1e293b" />
  <path d="M240 320 C 260 310, 280 305, 320 305 C 360 305, 380 310, 400 320" fill="#0f172a" />
  <circle cx="280" cy="260" r="12" fill="#e2e8f0" />
  <circle cx="360" cy="260" r="12" fill="#e2e8f0" />
  <path d="M280 310 C 300 330, 340 330, 360 310" stroke="#38bdf8" stroke-width="10" stroke-linecap="round" fill="none" />
  <rect x="160" y="680" width="320" height="32" rx="16" fill="url(#accent)" opacity="0.85" />
  <text x="320" y="760" text-anchor="middle" fill="#f8fafc" font-family="Inter, sans-serif" font-size="32" font-weight="700">Karim Kaliisa</text>
</svg>
